<svg width="24" height="24" viewBox="0 0 24 24" fill="none" xmlns="http://www.w3.org/2000/svg">
<g clip-path="url(#clip0_102_2)">
<rect width="24" height="24" rx="4" fill="white"/>
<g clip-path="url(#clip1_102_2)">
<rect width="24" height="24" fill="#0F7173"/>
<path d="M4 20H8L18.5 9.5C18.7626 9.23736 18.971 8.92555 19.1131 8.58239C19.2553 8.23923 19.3284 7.87143 19.3284 7.5C19.3284 7.12857 19.2553 6.76077 19.1131 6.41761C18.971 6.07445 18.7626 5.76264 18.5 5.5C18.2374 5.23736 17.9256 5.02902 17.5824 4.88687C17.2392 4.74473 16.8714 4.67157 16.5 4.67157C16.1286 4.67157 15.7608 4.74473 15.4176 4.88687C15.0744 5.02902 14.7626 5.23736 14.5 5.5L4 16V20Z" stroke="white" stroke-width="2" stroke-linecap="round" stroke-linejoin="round"/>
<path d="M13.5 6.5L17.5 10.5" stroke="white" stroke-width="2" stroke-linecap="round" stroke-linejoin="round"/>
<path d="M19 16L17 19H21L19 22" stroke="white" stroke-width="2" stroke-linecap="round" stroke-linejoin="round"/>
</g>
</g>
<defs>
<clipPath id="clip0_102_2">
<rect width="24" height="24" rx="4" fill="white"/>
</clipPath>
<clipPath id="clip1_102_2">
<rect width="24" height="24" fill="white"/>
</clipPath>
</defs>
</svg>
